solid OpenSCAD_Model
  facet normal 1 -0 0
    outer loop
      vertex 22.5 20 2
      vertex 22.5 55 0
      vertex 22.5 55 2
    endloop
  endfacet
  facet normal 1 0 0
    outer loop
      vertex 22.5 55 0
      vertex 22.5 20 2
      vertex 22.5 20 0
    endloop
  endfacet
  facet normal 0 0 1
    outer loop
      vertex 21 22 2
      vertex 22.5 55 2
      vertex 21 54 2
    endloop
  endfacet
  facet normal 0 0 1
    outer loop
      vertex 22.5 55 2
      vertex -21 54 2
      vertex 21 54 2
    endloop
  endfacet
  facet normal 0 0 1
    outer loop
      vertex -21 54 2
      vertex -22.5 55 2
      vertex -21 22 2
    endloop
  endfacet
  facet normal -0 0 1
    outer loop
      vertex -22.5 55 2
      vertex -21 54 2
      vertex 22.5 55 2
    endloop
  endfacet
  facet normal 0 0 1
    outer loop
      vertex 22.5 55 2
      vertex 21 22 2
      vertex 22.5 20 2
    endloop
  endfacet
  facet normal -0 0 1
    outer loop
      vertex -21 22 2
      vertex 22.5 20 2
      vertex 21 22 2
    endloop
  endfacet
  facet normal 0 0 1
    outer loop
      vertex -21 22 2
      vertex -22.5 20 2
      vertex 22.5 20 2
    endloop
  endfacet
  facet normal 0 0 1
    outer loop
      vertex -22.5 20 2
      vertex -21 22 2
      vertex -22.5 55 2
    endloop
  endfacet
  facet normal 0 0 -1
    outer loop
      vertex -22.5 20 0
      vertex 22.5 55 0
      vertex 22.5 20 0
    endloop
  endfacet
  facet normal -0 0 -1
    outer loop
      vertex 22.5 55 0
      vertex -22.5 20 0
      vertex -22.5 55 0
    endloop
  endfacet
  facet normal -1 0 0
    outer loop
      vertex -22.5 20 0
      vertex -22.5 55 2
      vertex -22.5 55 0
    endloop
  endfacet
  facet normal -1 -0 0
    outer loop
      vertex -22.5 55 2
      vertex -22.5 20 0
      vertex -22.5 20 2
    endloop
  endfacet
  facet normal 0 1 -0
    outer loop
      vertex 22.5 55 0
      vertex -22.5 55 2
      vertex 22.5 55 2
    endloop
  endfacet
  facet normal 0 1 0
    outer loop
      vertex -22.5 55 2
      vertex 22.5 55 0
      vertex -22.5 55 0
    endloop
  endfacet
  facet normal 0 -1 0
    outer loop
      vertex -22.5 20 0
      vertex 22.5 20 2
      vertex -22.5 20 2
    endloop
  endfacet
  facet normal 0 -1 -0
    outer loop
      vertex 22.5 20 2
      vertex -22.5 20 0
      vertex 22.5 20 0
    endloop
  endfacet
  facet normal 1 -0 0
    outer loop
      vertex 21 22 3.5
      vertex 21 54 2
      vertex 21 54 3.5
    endloop
  endfacet
  facet normal 1 0 0
    outer loop
      vertex 21 54 2
      vertex 21 22 3.5
      vertex 21 22 2
    endloop
  endfacet
  facet normal -0 0 1
    outer loop
      vertex -21 54 3.5
      vertex 21 22 3.5
      vertex 21 54 3.5
    endloop
  endfacet
  facet normal 0 0 1
    outer loop
      vertex 21 22 3.5
      vertex -21 54 3.5
      vertex -21 22 3.5
    endloop
  endfacet
  facet normal -1 0 0
    outer loop
      vertex -21 22 2
      vertex -21 54 3.5
      vertex -21 54 2
    endloop
  endfacet
  facet normal -1 -0 0
    outer loop
      vertex -21 54 3.5
      vertex -21 22 2
      vertex -21 22 3.5
    endloop
  endfacet
  facet normal 0 1 -0
    outer loop
      vertex 21 54 2
      vertex -21 54 3.5
      vertex 21 54 3.5
    endloop
  endfacet
  facet normal 0 1 0
    outer loop
      vertex -21 54 3.5
      vertex 21 54 2
      vertex -21 54 2
    endloop
  endfacet
  facet normal 0 -1 0
    outer loop
      vertex -21 22 2
      vertex 21 22 3.5
      vertex -21 22 3.5
    endloop
  endfacet
  facet normal 0 -1 -0
    outer loop
      vertex 21 22 3.5
      vertex -21 22 2
      vertex 21 22 2
    endloop
  endfacet
  facet normal 1 0 0
    outer loop
      vertex 22.5 8 6
      vertex 22.5 17.5 12
      vertex 22.5 8 10
    endloop
  endfacet
  facet normal 1 0 0
    outer loop
      vertex 22.5 17.5 12
      vertex 22.5 -8 10
      vertex 22.5 8 10
    endloop
  endfacet
  facet normal 1 0 0
    outer loop
      vertex 22.5 -8 10
      vertex 22.5 -17.5 12
      vertex 22.5 -8 6
    endloop
  endfacet
  facet normal 1 -0 0
    outer loop
      vertex 22.5 -17.5 12
      vertex 22.5 -8 10
      vertex 22.5 17.5 12
    endloop
  endfacet
  facet normal 1 0 0
    outer loop
      vertex 22.5 17.5 12
      vertex 22.5 8 6
      vertex 22.5 17.5 0
    endloop
  endfacet
  facet normal 1 -0 0
    outer loop
      vertex 22.5 -8 6
      vertex 22.5 17.5 0
      vertex 22.5 8 6
    endloop
  endfacet
  facet normal 1 0 0
    outer loop
      vertex 22.5 -8 6
      vertex 22.5 -17.5 0
      vertex 22.5 17.5 0
    endloop
  endfacet
  facet normal 1 0 0
    outer loop
      vertex 22.5 -17.5 0
      vertex 22.5 -8 6
      vertex 22.5 -17.5 12
    endloop
  endfacet
  facet normal 0 0 1
    outer loop
      vertex 22.5 17.5 12
      vertex 21 16 12
      vertex 22.5 -17.5 12
    endloop
  endfacet
  facet normal 0 0 1
    outer loop
      vertex 22.5 17.5 12
      vertex -21 16 12
      vertex 21 16 12
    endloop
  endfacet
  facet normal 0 0 1
    outer loop
      vertex -21 16 12
      vertex -22.5 17.5 12
      vertex -21 -16 12
    endloop
  endfacet
  facet normal -0 0 1
    outer loop
      vertex -22.5 17.5 12
      vertex -21 16 12
      vertex 22.5 17.5 12
    endloop
  endfacet
  facet normal -0 0 1
    outer loop
      vertex 21 -16 12
      vertex 22.5 -17.5 12
      vertex 21 16 12
    endloop
  endfacet
  facet normal -0 0 1
    outer loop
      vertex -21 -16 12
      vertex 22.5 -17.5 12
      vertex 21 -16 12
    endloop
  endfacet
  facet normal 0 0 1
    outer loop
      vertex -21 -16 12
      vertex -22.5 -17.5 12
      vertex 22.5 -17.5 12
    endloop
  endfacet
  facet normal 0 0 1
    outer loop
      vertex -22.5 -17.5 12
      vertex -21 -16 12
      vertex -22.5 17.5 12
    endloop
  endfacet
  facet normal 0 0 -1
    outer loop
      vertex -22.5 -17.5 0
      vertex 22.5 17.5 0
      vertex 22.5 -17.5 0
    endloop
  endfacet
  facet normal -0 0 -1
    outer loop
      vertex 22.5 17.5 0
      vertex -22.5 -17.5 0
      vertex -22.5 17.5 0
    endloop
  endfacet
  facet normal -1 0 0
    outer loop
      vertex -22.5 6 9
      vertex -22.5 17.5 0
      vertex -22.5 6 1
    endloop
  endfacet
  facet normal -1 0 0
    outer loop
      vertex -22.5 17.5 0
      vertex -22.5 -6 1
      vertex -22.5 6 1
    endloop
  endfacet
  facet normal -1 -0 0
    outer loop
      vertex -22.5 -6 1
      vertex -22.5 -17.5 0
      vertex -22.5 -6 9
    endloop
  endfacet
  facet normal -1 0 0
    outer loop
      vertex -22.5 -17.5 0
      vertex -22.5 -6 1
      vertex -22.5 17.5 0
    endloop
  endfacet
  facet normal -1 0 0
    outer loop
      vertex -22.5 17.5 0
      vertex -22.5 6 9
      vertex -22.5 17.5 12
    endloop
  endfacet
  facet normal -1 0 0
    outer loop
      vertex -22.5 -6 9
      vertex -22.5 17.5 12
      vertex -22.5 6 9
    endloop
  endfacet
  facet normal -1 0 0
    outer loop
      vertex -22.5 -6 9
      vertex -22.5 -17.5 12
      vertex -22.5 17.5 12
    endloop
  endfacet
  facet normal -1 0 0
    outer loop
      vertex -22.5 -17.5 12
      vertex -22.5 -6 9
      vertex -22.5 -17.5 0
    endloop
  endfacet
  facet normal 0 1 -0
    outer loop
      vertex 22.5 17.5 0
      vertex -22.5 17.5 12
      vertex 22.5 17.5 12
    endloop
  endfacet
  facet normal 0 1 0
    outer loop
      vertex -22.5 17.5 12
      vertex 22.5 17.5 0
      vertex -22.5 17.5 0
    endloop
  endfacet
  facet normal 0 -1 0
    outer loop
      vertex -22.5 -17.5 0
      vertex 22.5 -17.5 12
      vertex -22.5 -17.5 12
    endloop
  endfacet
  facet normal 0 -1 -0
    outer loop
      vertex 22.5 -17.5 12
      vertex -22.5 -17.5 0
      vertex 22.5 -17.5 0
    endloop
  endfacet
  facet normal -1 0 0
    outer loop
      vertex 21 16 1.5
      vertex 21 8 6
      vertex 21 16 12
    endloop
  endfacet
  facet normal -1 0 0
    outer loop
      vertex 21 16 1.5
      vertex 21 -8 6
      vertex 21 8 6
    endloop
  endfacet
  facet normal -1 0 0
    outer loop
      vertex 21 -16 12
      vertex 21 -8 6
      vertex 21 -16 1.5
    endloop
  endfacet
  facet normal -1 0 0
    outer loop
      vertex 21 -16 1.5
      vertex 21 -8 6
      vertex 21 16 1.5
    endloop
  endfacet
  facet normal -1 0 0
    outer loop
      vertex 21 8 10
      vertex 21 16 12
      vertex 21 8 6
    endloop
  endfacet
  facet normal -1 0 0
    outer loop
      vertex 21 -8 10
      vertex 21 16 12
      vertex 21 8 10
    endloop
  endfacet
  facet normal -1 0 0
    outer loop
      vertex 21 -8 10
      vertex 21 -16 12
      vertex 21 16 12
    endloop
  endfacet
  facet normal -1 0 0
    outer loop
      vertex 21 -8 6
      vertex 21 -16 12
      vertex 21 -8 10
    endloop
  endfacet
  facet normal 0 0 1
    outer loop
      vertex 21 16 1.5
      vertex -20 6 1.5
      vertex 21 -16 1.5
    endloop
  endfacet
  facet normal -0 0 1
    outer loop
      vertex -21 16 1.5
      vertex -20 6 1.5
      vertex 21 16 1.5
    endloop
  endfacet
  facet normal 0 0 1
    outer loop
      vertex -20 6 1.5
      vertex -21 16 1.5
      vertex -21 6 1.5
    endloop
  endfacet
  facet normal -0 0 1
    outer loop
      vertex -20 -6 1.5
      vertex 21 -16 1.5
      vertex -20 6 1.5
    endloop
  endfacet
  facet normal 0 0 1
    outer loop
      vertex -21 -16 1.5
      vertex -20 -6 1.5
      vertex -21 -6 1.5
    endloop
  endfacet
  facet normal 0 0 1
    outer loop
      vertex -20 -6 1.5
      vertex -21 -16 1.5
      vertex 21 -16 1.5
    endloop
  endfacet
  facet normal 1 0 0
    outer loop
      vertex -21 16 12
      vertex -21 6 9
      vertex -21 16 1.5
    endloop
  endfacet
  facet normal 1 0 0
    outer loop
      vertex -21 16 12
      vertex -21 -6 9
      vertex -21 6 9
    endloop
  endfacet
  facet normal 1 -0 0
    outer loop
      vertex -21 -16 12
      vertex -21 -6 9
      vertex -21 16 12
    endloop
  endfacet
  facet normal 1 0 0
    outer loop
      vertex -21 -16 1.5
      vertex -21 -6 9
      vertex -21 -16 12
    endloop
  endfacet
  facet normal 1 0 0
    outer loop
      vertex -21 -6 9
      vertex -21 -16 1.5
      vertex -21 -6 1.5
    endloop
  endfacet
  facet normal 1 0 0
    outer loop
      vertex -21 16 1.5
      vertex -21 6 9
      vertex -21 6 1.5
    endloop
  endfacet
  facet normal 0 -1 0
    outer loop
      vertex -12 16 4
      vertex -21 16 12
      vertex -16 16 4
    endloop
  endfacet
  facet normal 0 -1 0
    outer loop
      vertex -21 16 1.5
      vertex -16 16 4
      vertex -21 16 12
    endloop
  endfacet
  facet normal 0 -1 -0
    outer loop
      vertex -16 16 2
      vertex -21 16 1.5
      vertex -12 16 2
    endloop
  endfacet
  facet normal 0 -1 -0
    outer loop
      vertex -16 16 4
      vertex -21 16 1.5
      vertex -16 16 2
    endloop
  endfacet
  facet normal 0 -1 0
    outer loop
      vertex -21 16 12
      vertex -12 16 4
      vertex 21 16 12
    endloop
  endfacet
  facet normal 0 -1 0
    outer loop
      vertex 21 16 1.5
      vertex -12 16 4
      vertex -12 16 2
    endloop
  endfacet
  facet normal 0 -1 0
    outer loop
      vertex -12 16 4
      vertex 21 16 1.5
      vertex 21 16 12
    endloop
  endfacet
  facet normal 0 -1 0
    outer loop
      vertex 21 16 1.5
      vertex -12 16 2
      vertex -21 16 1.5
    endloop
  endfacet
  facet normal 0 1 0
    outer loop
      vertex 21 -16 12
      vertex -12 -16 4
      vertex -21 -16 12
    endloop
  endfacet
  facet normal 0 1 -0
    outer loop
      vertex 21 -16 1.5
      vertex -12 -16 4
      vertex 21 -16 12
    endloop
  endfacet
  facet normal 0 1 0
    outer loop
      vertex -21 -16 1.5
      vertex -12 -16 2
      vertex 21 -16 1.5
    endloop
  endfacet
  facet normal 0 1 0
    outer loop
      vertex -12 -16 4
      vertex 21 -16 1.5
      vertex -12 -16 2
    endloop
  endfacet
  facet normal 0 1 -0
    outer loop
      vertex -16 -16 4
      vertex -21 -16 12
      vertex -12 -16 4
    endloop
  endfacet
  facet normal 0 1 0
    outer loop
      vertex -21 -16 1.5
      vertex -16 -16 4
      vertex -16 -16 2
    endloop
  endfacet
  facet normal 0 1 0
    outer loop
      vertex -16 -16 4
      vertex -21 -16 1.5
      vertex -21 -16 12
    endloop
  endfacet
  facet normal 0 1 0
    outer loop
      vertex -12 -16 2
      vertex -21 -16 1.5
      vertex -16 -16 2
    endloop
  endfacet
  facet normal 0 0 -1
    outer loop
      vertex 21 -8 10
      vertex 22.5 8 10
      vertex 22.5 -8 10
    endloop
  endfacet
  facet normal -0 0 -1
    outer loop
      vertex 22.5 8 10
      vertex 21 -8 10
      vertex 21 8 10
    endloop
  endfacet
  facet normal -0 0 1
    outer loop
      vertex 21 8 6
      vertex 22.5 -8 6
      vertex 22.5 8 6
    endloop
  endfacet
  facet normal 0 0 1
    outer loop
      vertex 22.5 -8 6
      vertex 21 8 6
      vertex 21 -8 6
    endloop
  endfacet
  facet normal 0 -1 0
    outer loop
      vertex 21 8 6
      vertex 22.5 8 10
      vertex 21 8 10
    endloop
  endfacet
  facet normal 0 -1 -0
    outer loop
      vertex 22.5 8 10
      vertex 21 8 6
      vertex 22.5 8 6
    endloop
  endfacet
  facet normal 0 1 -0
    outer loop
      vertex 22.5 -8 6
      vertex 21 -8 10
      vertex 22.5 -8 10
    endloop
  endfacet
  facet normal 0 1 0
    outer loop
      vertex 21 -8 10
      vertex 22.5 -8 6
      vertex 21 -8 6
    endloop
  endfacet
  facet normal -1 0 0
    outer loop
      vertex -20 -6 1
      vertex -20 6 1.5
      vertex -20 6 1
    endloop
  endfacet
  facet normal -1 -0 0
    outer loop
      vertex -20 6 1.5
      vertex -20 -6 1
      vertex -20 -6 1.5
    endloop
  endfacet
  facet normal 0 0 -1
    outer loop
      vertex -22.5 -6 9
      vertex -21 6 9
      vertex -21 -6 9
    endloop
  endfacet
  facet normal -0 0 -1
    outer loop
      vertex -21 6 9
      vertex -22.5 -6 9
      vertex -22.5 6 9
    endloop
  endfacet
  facet normal -0 0 1
    outer loop
      vertex -22.5 6 1
      vertex -20 -6 1
      vertex -20 6 1
    endloop
  endfacet
  facet normal 0 0 1
    outer loop
      vertex -20 -6 1
      vertex -22.5 6 1
      vertex -22.5 -6 1
    endloop
  endfacet
  facet normal 0 -1 0
    outer loop
      vertex -22.5 6 9
      vertex -21 6 1.5
      vertex -21 6 9
    endloop
  endfacet
  facet normal 0 -1 0
    outer loop
      vertex -22.5 6 1
      vertex -21 6 1.5
      vertex -22.5 6 9
    endloop
  endfacet
  facet normal 0 -1 0
    outer loop
      vertex -20 6 1
      vertex -21 6 1.5
      vertex -22.5 6 1
    endloop
  endfacet
  facet normal 0 -1 0
    outer loop
      vertex -21 6 1.5
      vertex -20 6 1
      vertex -20 6 1.5
    endloop
  endfacet
  facet normal 0 1 0
    outer loop
      vertex -20 -6 1.5
      vertex -20 -6 1
      vertex -21 -6 1.5
    endloop
  endfacet
  facet normal 0 1 -0
    outer loop
      vertex -21 -6 1.5
      vertex -22.5 -6 9
      vertex -21 -6 9
    endloop
  endfacet
  facet normal 0 1 0
    outer loop
      vertex -21 -6 1.5
      vertex -22.5 -6 1
      vertex -22.5 -6 9
    endloop
  endfacet
  facet normal 0 1 0
    outer loop
      vertex -22.5 -6 1
      vertex -21 -6 1.5
      vertex -20 -6 1
    endloop
  endfacet
  facet normal 1 -0 0
    outer loop
      vertex -12 -16 4
      vertex -12 16 2
      vertex -12 16 4
    endloop
  endfacet
  facet normal 1 0 0
    outer loop
      vertex -12 16 2
      vertex -12 -16 4
      vertex -12 -16 2
    endloop
  endfacet
  facet normal -0 0 1
    outer loop
      vertex -16 16 4
      vertex -12 -16 4
      vertex -12 16 4
    endloop
  endfacet
  facet normal 0 0 1
    outer loop
      vertex -12 -16 4
      vertex -16 16 4
      vertex -16 -16 4
    endloop
  endfacet
  facet normal 0 0 -1
    outer loop
      vertex -16 -16 2
      vertex -12 16 2
      vertex -12 -16 2
    endloop
  endfacet
  facet normal -0 0 -1
    outer loop
      vertex -12 16 2
      vertex -16 -16 2
      vertex -16 16 2
    endloop
  endfacet
  facet normal -1 0 0
    outer loop
      vertex -16 -16 2
      vertex -16 16 4
      vertex -16 16 2
    endloop
  endfacet
  facet normal -1 -0 0
    outer loop
      vertex -16 16 4
      vertex -16 -16 2
      vertex -16 -16 4
    endloop
  endfacet
endsolid OpenSCAD_Model
